<?xml version="1.0" standalone="no"?>
<!DOCTYPE svg PUBLIC "-//W3C//DTD SVG 1.1//EN" "http://www.w3.org/Graphics/SVG/1.1/DTD/svg11.dtd" >
<svg xmlns="http://www.w3.org/2000/svg">
<metadata></metadata>
<defs>
<font id="big_johnregular" horiz-adv-x="650" >
<font-face units-per-em="1000" ascent="750" descent="-250" />
<missing-glyph horiz-adv-x="450" />
<glyph unicode=" "  horiz-adv-x="450" />
<glyph unicode="&#x09;" horiz-adv-x="450" />
<glyph unicode="&#xa0;" horiz-adv-x="450" />
<glyph unicode="!" horiz-adv-x="300" d="M70 79q0 33 23 56.5t56 23.5t56 -23.5t23 -56.5t-23 -56t-56 -23t-56 23t-23 56zM70 200v550h158v-550h-158z" />
<glyph unicode="$" horiz-adv-x="833" d="M250 -52v64q-70 23 -114 83.5t-44 138.5h175q0 -24 16.5 -40.5t39.5 -16.5t40 16.5t17 39.5t-17 40t-40 17q-96 0 -163 67t-67 163q0 76 43.5 136t113.5 83v76h156v-79q66 -25 107 -84t41 -131h-174q0 23 -17 40t-40 17t-39.5 -17t-16.5 -40t16.5 -39.5t39.5 -16.5 q54 0 101.5 -24t79.5 -65q50 -62 50 -145q0 -73 -41 -131.5t-107 -83.5v-68h-156z" />
<glyph unicode="%" horiz-adv-x="833" d="M142 0l346 750h176l-347 -750h-175zM508 78q0 32 23.5 56.5t55.5 24.5t55.5 -24.5t23.5 -56.5t-23.5 -55t-55.5 -23t-55.5 23t-23.5 55zM142 669q0 32 23.5 56.5t55.5 24.5t55.5 -24.5t23.5 -56.5t-23.5 -55t-55.5 -23t-55.5 23t-23.5 55z" />
<glyph unicode="&#x26;" horiz-adv-x="833" d="M214 454l-3 6q-3 5 -8.5 15t-10.5 22.5t-8.5 30t-3.5 34.5q0 26 10.5 56t31.5 61t60 51t89 20t88 -21.5t57.5 -54t28.5 -62.5t9 -55q0 -75 -67 -140l-102 -102q-35 -31 -35 -67q0 -32 23 -61.5t62 -29.5q18 0 34 6.5t23 12.5l8 7l111 111l183 -183l-110 -112l-72 72 q-2 -3 -6.5 -7.5t-21 -17t-34.5 -22t-48.5 -17t-62.5 -7.5q-93 0 -170 68t-77 169q0 52 21 99.5t41 69.5l21 21l114 116q7 8 7 19q0 10 -8 18t-19 8q-5 0 -11 -2t-9 -4l-3 -2q-4 -4 -10.5 -10t-23.5 -22.5t-32.5 -31.5t-31.5 -30t-25 -24z" />
<glyph unicode="(" horiz-adv-x="470" d="M423 158v-158q-156 0 -265.5 109t-109.5 265t109.5 266t265.5 110v-159q-90 0 -153 -63t-63 -154q0 -90 63 -153t153 -63z" />
<glyph unicode=")" horiz-adv-x="470" d="M48 0v158q90 0 153 63t63 153q0 91 -63 154t-153 63v159q156 0 265.5 -110t109.5 -266t-109.5 -265t-265.5 -109z" />
<glyph unicode="+" d="M89 282v158h157v158h159v-158h157v-158h-157v-157h-159v157h-157z" />
<glyph unicode="," horiz-adv-x="240" d="M106 -82v82q-32 0 -55.5 22.5t-23.5 54.5t23.5 56.5t55.5 24.5t55.5 -24.5t23.5 -56.5v-10t-3.5 -25t-11 -37.5t-24 -42.5t-40.5 -44z" />
<glyph unicode="-" horiz-adv-x="461" d="M29 342v158h394v-158h-394z" />
<glyph unicode="." horiz-adv-x="240" d="M41 81q0 34 22.5 56.5t56.5 22.5t56.5 -22.5t22.5 -56.5t-22.5 -57.5t-56.5 -23.5t-56.5 23.5t-22.5 57.5z" />
<glyph unicode="/" horiz-adv-x="570" d="M22 0l346 750h176l-347 -750h-175z" />
<glyph unicode="0" d="M79 245v260q0 101 71.5 173t173.5 72q101 0 173.5 -72t72.5 -174v-259q0 -102 -72 -173.5t-174 -71.5t-173.5 71.5t-71.5 173.5zM236 504v-258q0 -37 25.5 -62.5t62.5 -25.5t62.5 25.5t25.5 62.5v257q0 37 -25.5 62.5t-62.5 25.5t-62.5 -25.5t-25.5 -61.5z" />
<glyph unicode="1" horiz-adv-x="520" d="M171 0v750h197v-750h-197z" />
<glyph unicode="2" d="M67 0l302 429q33 40 33 77q0 31 -25.5 58.5t-63.5 27.5q-36 0 -61.5 -26t-25.5 -63h-161q0 100 71 173.5t183 73.5q105 0 174 -76.5t69 -173.5q0 -35 -11 -69.5t-23 -51.5l-11 -17l-143 -203h212v-159h-519z" />
<glyph unicode="3" d="M148 71l28 29l56 56l28 28q0 -2 6.5 -7.5t24 -12.5t38.5 -7q35 0 58 26t23 59q0 35 -22.5 63t-59.5 28q-24 0 -41 -6.5t-22 -13.5l-5 -7l-112 113l120 173h-155v158h459l-188 -267q7 -2 19.5 -6t44 -22.5t55.5 -43t44 -69.5t20 -99q0 -107 -73.5 -175t-164.5 -68 q-32 0 -62 7.5t-50.5 17.5t-37 20.5t-24 17.5t-7.5 8z" />
<glyph unicode="4" d="M506 750v-432h138v-159h-138v-159h-158v159h-343v160l302 431h199zM198 318h150v214z" />
<glyph unicode="5" d="M325 338h-245v412h473v-159h-315v-101h87q101 0 173 -72t72 -173t-72 -173t-173 -72t-173 72t-72 173v5h157q0 -37 25.5 -62t62.5 -25q36 0 61.5 25.5t25.5 62.5q0 36 -25.5 61.5t-61.5 25.5z" />
<glyph unicode="6" d="M78 247q0 71 38 134l214 369h184l-150 -259q88 -14 148 -83.5t60 -160.5q0 -102 -72.5 -174.5t-174.5 -72.5t-174.5 72.5t-72.5 174.5zM237 247q0 -37 25.5 -62.5t62.5 -25.5q36 0 62 25.5t26 62.5q0 36 -26 62t-62 26q-37 0 -62.5 -26t-25.5 -62z" />
<glyph unicode="7" d="M34 750h580v-161l-340 -589h-182l341 590h-399v160z" />
<glyph unicode="8" d="M116 541q0 86 61 147.5t147 61.5t147.5 -61.5t61.5 -147.5q0 -66 -38 -120q75 -72 75 -176q0 -102 -72 -173.5t-174 -71.5t-173.5 71.5t-71.5 173.5q0 105 74 176q-37 55 -37 120zM237 245q0 -36 25.5 -61.5t61.5 -25.5t62 25.5t26 61.5q0 35 -25 60.5t-60 27.5h-7 q-35 -2 -59 -27.5t-24 -60.5zM275 540q0 -21 14 -35t35 -14t35.5 14t14.5 35t-14.5 35.5t-35.5 14.5t-35 -14.5t-14 -35.5z" />
<glyph unicode="9" d="M136 0l151 263q-88 14 -147 82.5t-59 159.5q0 101 72 173t173 72t173 -72t72 -173q0 -67 -35 -126l-218 -379h-182zM238 502q0 -38 25 -63t63 -25q37 0 62.5 25.5t25.5 62.5t-25.5 62.5t-62.5 25.5t-62.5 -25.5t-25.5 -62.5z" />
<glyph unicode=":" horiz-adv-x="268" d="M61 316q0 33 23.5 56.5t56.5 23.5t56.5 -23.5t23.5 -56.5t-23.5 -56.5t-56.5 -23.5t-56.5 23.5t-23.5 56.5zM61 80q0 33 23.5 56.5t56.5 23.5t56.5 -23.5t23.5 -56.5t-23.5 -56.5t-56.5 -23.5t-56.5 23.5t-23.5 56.5z" />
<glyph unicode=";" horiz-adv-x="268" d="M61 316q0 33 23.5 56.5t56.5 23.5t56.5 -23.5t23.5 -56.5t-23.5 -56.5t-56.5 -23.5t-56.5 23.5t-23.5 56.5zM140 -82v82q-32 0 -55.5 22.5t-23.5 54.5t23.5 56.5t55.5 24.5t55.5 -24.5t23.5 -56.5v-10t-3.5 -25t-11 -37.5t-24 -42.5t-40.5 -44z" />
<glyph unicode="=" d="M117 413v158h394v-158h-394zM117 98v157h394v-157h-394z" />
<glyph unicode="?" horiz-adv-x="550" d="M178 192v218h88q37 0 62 25.5t25 63.5q0 37 -25 62t-62 25t-61.5 -24t-26.5 -59v-4h-157v6q0 101 72 173t173 72t173 -72t72 -173q0 -82 -49 -147t-126 -88v-78h-158zM177 79q0 34 22.5 56t57.5 22q34 0 56 -22t22 -56t-22 -56.5t-56 -22.5q-35 0 -57.5 22.5t-22.5 56.5z " />
<glyph unicode="A" horiz-adv-x="842" d="M223 0h-197l350 750h89l353 -750h-197l-46 98h-307zM422 429l-77 -165h153z" />
<glyph unicode="B" horiz-adv-x="708" d="M273 162h132q27 0 46 19t19 46t-19.5 46t-45.5 19h-132v-130zM273 457h95q27 0 46 19t19 46t-19 46t-46 19h-95v-130zM446 0h-370v750h331q90 0 156 -66.5t66 -156.5q0 -74 -48 -135q39 -31 62 -76.5t23 -95.5q0 -89 -65.5 -154.5t-154.5 -65.5z" />
<glyph unicode="C" horiz-adv-x="773" d="M697 641l-138 -139q-49 49 -126 49t-126.5 -49.5t-49.5 -126.5t49.5 -126.5t126.5 -49.5q78 0 126 50l140 -138q-111 -111 -266 -111t-265 110t-110 265t110 265t265 110t264 -109z" />
<glyph unicode="D" horiz-adv-x="789" d="M76 0v750h278q155 0 265 -110t110 -265t-110 -265t-265 -110h-278zM272 549v-355h83q73 0 125.5 52t52.5 126q0 73 -52.5 125t-125.5 52h-83z" />
<glyph unicode="E" horiz-adv-x="607" d="M76 0v750h466v-163h-269v-122h238v-166h-238v-138h269v-161h-466z" />
<glyph unicode="F" horiz-adv-x="611" d="M76 0v750h470v-162h-273v-122h241v-167h-241v-299h-197z" />
<glyph unicode="G" horiz-adv-x="846" d="M439 403h375v-28q0 -155 -110 -265t-265 -110t-264.5 110t-109.5 265t109.5 265t264.5 110q153 0 264 -109l-139 -138q-53 50 -125 50t-124.5 -51t-52.5 -127q0 -75 53 -126.5t124 -51.5q44 0 83 20t62 54h-145v132z" />
<glyph unicode="H" horiz-adv-x="783" d="M76 750h197v-267h238v267h197v-750h-197v286h-238v-286h-197v750z" />
<glyph unicode="I" horiz-adv-x="347" d="M75 0v750h197v-750h-197z" />
<glyph unicode="J" horiz-adv-x="600" d="M525 750v-494q-2 -122 -88 -189t-205 -67q-37 0 -103 18t-110 60q72 72 143 145q25 -25 77 -25q39 0 64 23.5t25 63.5v465h197z" />
<glyph unicode="K" horiz-adv-x="858" d="M525 750h276l-342 -343l406 -407h-278l-267 266l-47 -48v-218h-197v750h197v-253z" />
<glyph unicode="L" horiz-adv-x="608" d="M76 0v750h197v-552h270v-198h-467z" />
<glyph unicode="M" horiz-adv-x="940" d="M165 750l306 -278l305 278h89v-750h-198v385l-196 -179l-197 178v-384h-198v750h89z" />
<glyph unicode="N" horiz-adv-x="783" d="M708 0h-81l-354 355v-355h-197v750h80l355 -354v354h197v-750z" />
<glyph unicode="O" horiz-adv-x="871" d="M61 374q0 155 109.5 265.5t264.5 110.5t265 -110.5t110 -265.5t-110 -264.5t-265 -109.5t-264.5 109.5t-109.5 264.5zM614 375q0 74 -52.5 126.5t-126.5 52.5t-126 -52.5t-52 -126.5t52.5 -126.5t125.5 -52.5q74 0 126.5 52.5t52.5 126.5z" />
<glyph unicode="P" horiz-adv-x="698" d="M273 584v-215h122q45 0 76.5 31t31.5 76t-31.5 76.5t-76.5 31.5h-122zM76 0v750h316q114 0 195 -81t81 -195q0 -113 -80 -194t-192 -81h-123v-199h-197z" />
<glyph unicode="Q" horiz-adv-x="961" d="M951 0h-275l-52 51q-85 -51 -188 -51q-155 0 -265 110t-110 265t110 265t265 110t265 -110t110 -265q0 -100 -50 -186zM258 374q0 -75 51.5 -126.5t126.5 -51.5q22 0 38 4l-92 92l139 138l90 -90q3 16 3 34q0 75 -51.5 126.5t-126.5 51.5t-126.5 -51.5t-51.5 -126.5z" />
<glyph unicode="R" horiz-adv-x="759" d="M738 0h-227l-116 199h-122v-199h-197v750h316q114 0 195 -81t81 -195q0 -120 -89 -202zM273 584v-215h122q45 0 76.5 31t31.5 76t-31.5 76.5t-76.5 31.5h-122z" />
<glyph unicode="S" horiz-adv-x="590" d="M526 520h-174q0 23 -17 40t-40 17t-39.5 -17t-16.5 -40t16.5 -39.5t39.5 -16.5q54 0 101.5 -24t79.5 -65q50 -63 50 -145q0 -96 -67.5 -163t-163.5 -67q-97 0 -164 67t-67 166h175q0 -24 16.5 -40.5t39.5 -16.5t40 16.5t17 39.5t-17 40t-40 17q-96 0 -163 67t-67 163 t67 163.5t163 67.5t163.5 -67t67.5 -163z" />
<glyph unicode="T" horiz-adv-x="711" d="M60 555v196h591v-196h-199v-555h-197v555h-195z" />
<glyph unicode="U" horiz-adv-x="741" d="M273 750v-451q0 -41 28.5 -69.5t69.5 -28.5t69.5 28.5t28.5 69.5v451h198v-454q0 -123 -86.5 -209.5t-209.5 -86.5q-124 0 -210 86t-86 210v454h198z" />
<glyph unicode="V" horiz-adv-x="809" d="M603 751h196l-349 -751h-90l-350 751h198l197 -427z" />
<glyph unicode="W" horiz-adv-x="1246" d="M747 0l-125 267l-124 -267h-142l-346 750h216l212 -459l143 312h83l143 -312l213 459h216l-347 -750h-142z" />
<glyph unicode="X" horiz-adv-x="809" d="M535 750h240l-250 -359l275 -391h-240l-155 220l-156 -220h-240l275 391l-250 359h240l131 -187z" />
<glyph unicode="Y" horiz-adv-x="762" d="M753 750l-274 -474v-276h-195v276l-274 474h227l144 -250l145 250h227z" />
<glyph unicode="Z" horiz-adv-x="710" d="M685 750l-319 -553h290v-197h-631l319 552h-300v198h641z" />
<glyph unicode="[" horiz-adv-x="340" d="M52 0v750h237v-156h-79v-434h79v-160h-237z" />
<glyph unicode="\" horiz-adv-x="570" d="M560 0h-175l-347 750h176z" />
<glyph unicode="]" horiz-adv-x="340" d="M289 750v-750h-237v160h79v434h-79v156h237z" />
<glyph unicode="_" horiz-adv-x="500" d="M53 -158v158h394v-158h-394z" />
<glyph unicode="a" horiz-adv-x="842" d="M223 0h-197l350 750h89l353 -750h-197l-46 98h-307zM422 429l-77 -165h153z" />
<glyph unicode="b" horiz-adv-x="708" d="M273 162h132q27 0 46 19t19 46t-19.5 46t-45.5 19h-132v-130zM273 457h95q27 0 46 19t19 46t-19 46t-46 19h-95v-130zM446 0h-370v750h331q90 0 156 -66.5t66 -156.5q0 -74 -48 -135q39 -31 62 -76.5t23 -95.5q0 -89 -65.5 -154.5t-154.5 -65.5z" />
<glyph unicode="c" horiz-adv-x="773" d="M697 641l-138 -139q-49 49 -126 49t-126.5 -49.5t-49.5 -126.5t49.5 -126.5t126.5 -49.5q78 0 126 50l140 -138q-111 -111 -266 -111t-265 110t-110 265t110 265t265 110t264 -109z" />
<glyph unicode="d" horiz-adv-x="789" d="M76 0v750h278q155 0 265 -110t110 -265t-110 -265t-265 -110h-278zM272 551v-355h83q73 0 125.5 52t52.5 126q0 73 -52.5 125t-125.5 52h-83z" />
<glyph unicode="e" horiz-adv-x="607" d="M76 0v750h466v-163h-269v-122h238v-166h-238v-138h269v-161h-466z" />
<glyph unicode="f" horiz-adv-x="611" d="M76 0v750h470v-162h-273v-122h241v-167h-241v-299h-197z" />
<glyph unicode="g" horiz-adv-x="846" d="M439 403h375v-28q0 -155 -110 -265t-265 -110t-264.5 110t-109.5 265t109.5 265t264.5 110q153 0 264 -109l-139 -138q-53 50 -125 50t-124.5 -51t-52.5 -127q0 -75 53 -126.5t124 -51.5q44 0 83 20t62 54h-145v132z" />
<glyph unicode="h" horiz-adv-x="783" d="M76 750h197v-267h238v267h197v-750h-197v286h-238v-286h-197v750z" />
<glyph unicode="i" horiz-adv-x="347" d="M75 0v750h197v-750h-197z" />
<glyph unicode="j" horiz-adv-x="600" d="M525 750v-494q-2 -122 -88 -189t-205 -67q-37 0 -103 18t-110 60q72 72 143 145q25 -25 77 -25q39 0 64 23.5t25 63.5v465h197z" />
<glyph unicode="k" horiz-adv-x="858" d="M525 750h276l-342 -343l406 -407h-278l-267 266l-47 -48v-218h-197v750h197v-253z" />
<glyph unicode="l" horiz-adv-x="608" d="M76 0v750h197v-552h270v-198h-467z" />
<glyph unicode="m" horiz-adv-x="940" d="M165 750l306 -278l305 278h89v-750h-198v385l-196 -179l-197 178v-384h-198v750h89z" />
<glyph unicode="n" horiz-adv-x="783" d="M708 0h-81l-354 355v-355h-197v750h80l355 -354v354h197v-750z" />
<glyph unicode="o" horiz-adv-x="871" d="M61 374q0 155 109.5 265.5t264.5 110.5t265 -110.5t110 -265.5t-110 -264.5t-265 -109.5t-264.5 109.5t-109.5 264.5zM614 375q0 74 -52.5 126.5t-126.5 52.5t-126 -52.5t-52 -126.5t52.5 -126.5t125.5 -52.5q74 0 126.5 52.5t52.5 126.5z" />
<glyph unicode="p" horiz-adv-x="698" d="M273 584v-215h122q45 0 76.5 31t31.5 76t-31.5 76.5t-76.5 31.5h-122zM76 0v750h316q114 0 195 -81t81 -195q0 -113 -80 -194t-192 -81h-123v-199h-197z" />
<glyph unicode="q" horiz-adv-x="961" d="M951 0h-275l-52 51q-85 -51 -188 -51q-155 0 -265 110t-110 265t110 265t265 110t265 -110t110 -265q0 -100 -50 -186zM258 374q0 -75 51.5 -126.5t126.5 -51.5q22 0 38 4l-92 92l139 138l90 -90q3 16 3 34q0 75 -51.5 126.5t-126.5 51.5t-126.5 -51.5t-51.5 -126.5z" />
<glyph unicode="r" horiz-adv-x="759" d="M738 0h-227l-116 199h-122v-199h-197v750h316q114 0 195 -81t81 -195q0 -120 -89 -202zM273 584v-215h122q45 0 76.5 31t31.5 76t-31.5 76.5t-76.5 31.5h-122z" />
<glyph unicode="s" horiz-adv-x="590" d="M526 520h-174q0 23 -17 40t-40 17t-39.5 -17t-16.5 -40t16.5 -39.5t39.5 -16.5q54 0 101.5 -24t79.5 -65q50 -63 50 -145q0 -96 -67.5 -163t-163.5 -67q-97 0 -164 67t-67 166h175q0 -24 16.5 -40.5t39.5 -16.5t40 16.5t17 39.5t-17 40t-40 17q-96 0 -163 67t-67 163 t67 163.5t163 67.5t163.5 -67t67.5 -163z" />
<glyph unicode="t" horiz-adv-x="711" d="M60 555v196h591v-196h-199v-555h-197v555h-195z" />
<glyph unicode="u" horiz-adv-x="741" d="M273 750v-451q0 -41 28.5 -69.5t69.5 -28.5t69.5 28.5t28.5 69.5v451h198v-454q0 -123 -86.5 -209.5t-209.5 -86.5q-124 0 -210 86t-86 210v454h198z" />
<glyph unicode="v" horiz-adv-x="809" d="M603 751h196l-349 -751h-90l-350 751h198l197 -427z" />
<glyph unicode="w" horiz-adv-x="1246" d="M747 0l-125 267l-124 -267h-142l-346 750h216l212 -459l143 312h83l143 -312l213 459h216l-347 -750h-142z" />
<glyph unicode="x" horiz-adv-x="809" d="M535 750h240l-250 -359l275 -391h-240l-155 220l-156 -220h-240l275 391l-250 359h240l131 -187z" />
<glyph unicode="y" horiz-adv-x="762" d="M753 750l-274 -474v-276h-195v276l-274 474h227l144 -250l145 250h227z" />
<glyph unicode="z" horiz-adv-x="710" d="M685 750l-319 -553h290v-197h-631l319 552h-300v198h641z" />
<glyph unicode="&#xa1;" horiz-adv-x="300" d="M70 671q0 33 23 56t56 23t56 -23t23 -56t-23 -56.5t-56 -23.5t-56 23.5t-23 56.5zM70 0v550h158v-550h-158z" />
<glyph unicode="&#xbf;" horiz-adv-x="550" d="M372 558v-218h-88q-37 0 -62 -25.5t-25 -63.5q0 -37 25 -62t62 -25t61.5 24t26.5 59v4h157v-6q0 -101 -72 -173t-173 -72t-173 72t-72 173q0 82 49 147t126 88v78h158zM373 671q0 -34 -22.5 -56t-57.5 -22q-34 0 -56 22t-22 56t22 56.5t56 22.5q35 0 57.5 -22.5 t22.5 -56.5z" />
<glyph unicode="&#x2018;" horiz-adv-x="284" d="M142 750v-82q32 0 55.5 -22.5t23.5 -54.5t-23.5 -56.5t-55.5 -24.5t-55.5 24.5t-23.5 56.5v10t3.5 25t11 37.5t24 42.5t40.5 44z" />
<glyph unicode="&#x2019;" horiz-adv-x="284" d="M142 510v82q-32 0 -55.5 22.5t-23.5 54.5t23.5 56.5t55.5 24.5t55.5 -24.5t23.5 -56.5v-10t-3.5 -25t-11 -37.5t-24 -42.5t-40.5 -44z" />
<glyph unicode="&#x201c;" horiz-adv-x="500" d="M337 750v-82q32 0 55.5 -22.5t23.5 -54.5t-23.5 -56.5t-55.5 -24.5t-55.5 24.5t-23.5 56.5v10t3.5 25t11 37.5t24 42.5t40.5 44zM160 750v-82q32 0 55.5 -22.5t23.5 -54.5t-23.5 -56.5t-55.5 -24.5t-55.5 24.5t-23.5 56.5v10t3.5 25t11 37.5t24 42.5t40.5 44z" />
<glyph unicode="&#x201d;" horiz-adv-x="500" d="M160 510v82q-32 0 -55.5 22.5t-23.5 54.5t23.5 56.5t55.5 24.5t55.5 -24.5t23.5 -56.5v-10t-3.5 -25t-11 -37.5t-24 -42.5t-40.5 -44zM337 510v82q-32 0 -55.5 22.5t-23.5 54.5t23.5 56.5t55.5 24.5t55.5 -24.5t23.5 -56.5v-10t-3.5 -25t-11 -37.5t-24 -42.5t-40.5 -44z " />
<glyph unicode="&#x25fc;" horiz-adv-x="750" d="M0 750h750v-750h-750v750z" />
</font>
</defs>
</svg>
